# xmcd
#
# Track frame offsets:
#	150
#	12822
#	30711
#	45137
#	54143
#	67320
#	83616
#	97907
#	116061
#	128253
#	143509
#	156066
#	171394
#	185882
#	206029
#	225869
#
# Disc length: 3335 seconds
#
# Revision: 1
# Processed by: cddbd v1.5.2PL0 Copyright (c) Steve Scherf et al.
# Submitted via: EasyCDDAExtractor 16.0.8.1
#
DISCID=c10d0510
DTITLE=Joaozinho aboiador - No ritmo da vaquejada
DYEAR=2002
DGENRE=Country
TTITLE0=o calor do rodeio
TTITLE1=saudade da minha terra
TTITLE2=a mulher da minha vida
TTITLE3=no terreiro da fazenda
TTITLE4=a mulher da loteria
TTITLE5=fazenda boa ventura
TTITLE6=a mulher do shorte apertado
TTITLE7=a seca do nordeste brasileiro
TTITLE8=o quanto ser coroa e bom
TTITLE9=o velho de 70
TTITLE10=uma noite de saudade
TTITLE11=o vaqueiro e o motorista
TTITLE12=conversando com uma nuven
TTITLE13=onde tem gado e vaqueiro
TTITLE14=vaqueiro nordestino
TTITLE15=se um dia deixar de ser vaqueiro vou chorar
EXTD=aboiador
EXTT0=
EXTT1=
EXTT2=
EXTT3=
EXTT4=
EXTT5=
EXTT6=
EXTT7=
EXTT8=
EXTT9=
EXTT10=
EXTT11=
EXTT12=
EXTT13=
EXTT14=
EXTT15=
PLAYORDER=
